<?xml version="1.0" encoding="UTF-8" standalone="no"?>
<!-- Created with Inkscape (http://www.inkscape.org/) -->

<svg
   width="793.7005"
   height="793.7005"
   viewBox="0 0 209.99992 209.99992"
   version="1.1"
   id="svg5"
   xmlns="http://www.w3.org/2000/svg"
   xmlns:svg="http://www.w3.org/2000/svg">
  <defs
     id="defs2" />
  <g
     id="layer1"
     transform="translate(-0.27668762,-45.655886)">
    <g
       id="g13059"
       transform="translate(2.9531571,62.973736)">
      <g
         id="g13067">
        <path
           style="fill:none;stroke:#000000;stroke-width:0.264583px;stroke-linecap:butt;stroke-linejoin:miter;stroke-opacity:1"
           d="m 41.825461,91.22342 c 0.105739,0.955136 0.622328,2.641779 1.645807,3.856632 0.804901,0.955405 0.298566,2.368014 0.324445,3.683414 0.923528,9.382874 7.183337,17.895264 10.289959,24.182504 2.302398,6.65871 0.228121,14.31446 0.03338,19.72205 0.05946,9.48428 15.670101,13.45998 18.129917,-0.17103 2.480354,-6.01925 6.183524,-6.56897 11.102656,-8.81979 9.47619,1.41866 11.294716,4.93856 17.168575,9.58388 17.23087,11.17472 12.9278,7.91497 30.77239,-3.21401 1.57352,-0.40341 1.06517,-1.06706 1.28072,-1.64021 -1.24824,-11.7083 4.34453,-22.95745 11.7431,-32.08234 6.15018,-7.190504 9.9471,-19.907928 7.91497,-29.021582 -0.52766,-5.540483 -0.066,-4.155362 -0.066,-4.155362 0.99231,-4.064476 0.60297,-11.885094 2.11065,-15.434206 3.16289,-6.947403 10.56,-1.973567 10.02564,-9.761805 -10.39441,-17.509793 -27.29764,-48.64366582 -54.28349,-48.54518824 7.97179,12.08531924 9.22683,15.73948124 9.62988,20.57893924 -1.45245,0.313296 -3.00856,-0.410042 -4.30353,1.47806 -8.37247,-0.579767 -20.222522,0.08002 -27.515864,1.212942 -0.6012,0.09339 -1.105243,-0.502541 -1.62217,-0.825207 -1.16149,-0.725002 -2.585014,-1.90751 -7.584395,-0.744507 L 85.59103,-2.0974022 73.451985,3.4138191 C 61.035376,10.196874 48.018048,24.660782 41.331176,46.634346 c -1.229215,2.358879 -1.363629,4.982865 -0.282581,8.320098 l 5.6045,2.641071 c -1.124822,4.068954 -0.99066,6.288315 -0.279837,11.845478 -0.265888,4.284655 -1.340287,8.682388 -2.174558,12.99029 -0.26321,1.359131 -0.278886,2.982125 -0.988019,3.961244 -1.308699,1.806959 -1.420988,3.840672 -1.38522,4.830893 z"
           id="path969" />
        <path
           style="fill:none;stroke:#000000;stroke-width:0.264583px;stroke-linecap:butt;stroke-linejoin:miter;stroke-opacity:1"
           d="m 52.997365,71.383193 6.237693,-2.59914 c 1.878429,-0.790485 3.677959,-0.476389 5.469874,-0.05567 2.080303,1.106589 1.748687,5.085449 2.077683,7.684124 -2.207942,0.596268 -4.38206,0.685185 -6.546345,0.626598 -5.085028,-0.323984 -6.51446,-3.580415 -7.238905,-5.655912 z"
           id="path971" />
        <path
           style="fill:none;stroke:#000000;stroke-width:0.264583px;stroke-linecap:butt;stroke-linejoin:miter;stroke-opacity:1"
           d="m 113.99442,73.03635 c 0.85103,-4.686717 0.4852,-4.649519 2.77274,-6.470525 3.97402,-0.58401 8.81467,-0.836465 15.28034,3.915418 -0.78521,0.801626 -1.99242,0.882005 -2.62491,1.415568 -0.5023,0.423736 -1.00942,1.515412 -2.5164,2.486592 -4.23234,1.489389 -9.0382,0.647402 -12.91177,-1.347053 z"
           id="path973" />
        <path
           style="fill:none;stroke:#000000;stroke-width:0.264583px;stroke-linecap:butt;stroke-linejoin:miter;stroke-opacity:1"
           d="m 73.873116,99.728704 17.67678,-0.791496 c 7.657695,0.214321 8.830304,7.316432 6.625076,12.496152 -5.046033,8.34879 -8.856301,14.70594 -15.859217,20.74675 -3.857399,-2.69932 -7.812178,-5.32909 -10.830392,-8.62783 -6.213401,-8.00159 -7.173213,-19.7855 2.387753,-23.823576 z"
           id="path975" />
        <path
           style="fill:none;stroke:#000000;stroke-width:0.264583px;stroke-linecap:butt;stroke-linejoin:miter;stroke-opacity:1"
           d="m 53.979136,141.68859 c 1.788864,25.58461 21.981646,7.57903 26.175203,8.88253 l 7.461839,0.91541 c 2.754894,0.40954 6.777352,-0.30155 8.043008,-1.75355 1.796171,2.6476 5.605534,3.22279 11.630124,1.5176 4.24862,1.85319 10.65149,1.12665 17.14663,-2.81042 2.65589,-1.60988 5.27171,-7.94363 6.85665,-8.39309"
           id="path977" />
        <path
           style="fill:none;stroke:#000000;stroke-width:0.264583px;stroke-linecap:butt;stroke-linejoin:miter;stroke-opacity:1"
           d="m 151.70372,75.45611 c 2.106,-1.736722 3.38608,4.14267 4.0894,12.400131 3.07852,10.483917 2.55932,15.023869 3.03408,18.204449 l -1.583,11.87246 1.84683,29.28541 1.84683,13.7193 c -30.87278,23.22075 -74.872002,20.46927 -111.165412,1.97211 2.447258,-6.28811 4.584411,-15.71755 4.206688,-21.22138"
           id="path979" />
      </g>
    </g>
    <rect
       style="fill:#a1cf9c;fill-opacity:1;stroke:#42a039;stroke-width:9.99993;stroke-miterlimit:0;stroke-dasharray:none;stroke-opacity:1;paint-order:stroke markers fill"
       id="rect12648"
       width="200"
       height="200"
       x="5.2766514"
       y="50.655849"
       ry="100" />
    <path
       style="fill:#000000;fill-opacity:1;stroke:none;stroke-width:0.498581;stroke-miterlimit:0;paint-order:stroke markers fill"
       d="m 235.246,528.01927 c -10.88511,-1.99266 -17.9713,-7.62356 -21.7919,-17.31649 l -0.97773,-2.48052 11.72771,-4.8848 c 6.45024,-2.68664 12.74984,-5.19242 13.99912,-5.5684 4.52374,-1.36145 15.25782,-0.49017 18.26907,1.48288 1.77187,1.16097 4.18405,6.4925 4.772,10.54734 0.56804,3.9175 1.58928,16.28884 1.36328,16.51484 -0.0805,0.0805 -2.1562,0.51122 -4.61268,0.95718 -5.07804,0.92189 -19.25293,1.38795 -22.74887,0.74797 z"
       id="path13225"
       transform="scale(0.26458333)" />
    <path
       style="fill:#000000;fill-opacity:1;stroke:none;stroke-width:0.498581;stroke-miterlimit:0;paint-order:stroke markers fill"
       d="m 461.47618,520.01017 c -5.19741,-1.09492 -11.24737,-3.02974 -15.5641,-4.97751 l -3.0603,-1.38084 1.20738,-6.90388 c 1.49396,-8.54259 2.66578,-11.22851 6.21003,-14.234 l 2.69184,-2.28266 5.94737,-0.63067 c 12.89078,-1.36696 23.85374,0.61287 35.93345,6.48933 5.96589,2.90224 13.71098,7.66895 13.71098,8.43841 0,0.22303 -1.92338,1.26253 -4.27418,2.31001 -3.65254,1.62751 -4.63942,2.34391 -6.78536,4.92562 -4.89081,5.884 -6.6017,6.90248 -14.35708,8.54667 -4.79801,1.0172 -16.15289,0.85968 -21.66003,-0.30048 z"
       id="path13301"
       transform="scale(0.26458333)" />
    <path
       style="fill:#42a039;fill-opacity:1;stroke:#71b86b;stroke-width:0.498581;stroke-miterlimit:0;stroke-opacity:1;paint-order:stroke markers fill"
       d="m 317.84552,733.55328 c -29.7622,-20.98629 -37.46484,-28.5241 -45.32395,-44.35406 -5.09658,-10.26561 -7.63111,-19.6024 -8.09636,-29.82557 -0.66911,-14.70293 3.68048,-26.29535 13.21958,-35.23251 5.48652,-5.14031 10.51455,-7.88955 15.44132,-8.44306 2.10045,-0.23598 17.79278,-1.02805 34.87185,-1.76015 29.91862,-1.28248 31.21126,-1.29997 35.38989,-0.47895 5.98809,1.17656 10.17151,3.28458 13.89192,7.00011 7.83682,7.82652 10.03517,20.55168 5.84355,33.82532 -2.61383,8.27721 -23.50604,40.78297 -37.23865,57.93884 -4.04119,5.04859 -22.70621,24.19744 -23.55136,24.16187 -0.25253,-0.0106 -2.25403,-1.28496 -4.44779,-2.83184 z"
       id="path13340"
       transform="scale(0.26458333)" />
    <path
       style="fill:#ffeff1;fill-opacity:1;stroke:none;stroke-width:1.99432;stroke-miterlimit:0;paint-order:stroke markers fill"
       d="m 236.24214,820.05639 c -6.06516,-3.81431 -12.87776,-12.4063 -12.87776,-16.24131 0,-1.11786 3.49454,-0.21103 7.76564,2.0152 11.57491,6.03318 20.79342,6.91961 31.08536,2.98908 11.28825,-4.31103 18.09498,-12.40178 22.14015,-26.3167 4.07816,-14.02835 12.35456,-23.37079 27.45845,-30.99521 9.42657,-4.75852 13.80425,-5.86267 20.3284,-5.12731 12.74587,1.43665 28.28183,9.57334 45.11493,23.62816 17.2258,14.38271 43.07162,30.63944 55.54388,34.93649 12.31889,4.2442 19.60918,1.90102 41.74928,-13.41867 10.92098,-7.55669 20.4026,-13.73944 21.07028,-13.73944 0.66768,0 -1.75824,4.13872 -5.39092,9.19714 -11.09548,15.45018 -39.10031,26.56245 -60.11742,23.85448 -14.24719,-1.83569 -14.85848,-1.83884 -27.59895,-0.14219 -13.26924,1.76706 -20.19822,0.39896 -25.66457,-5.06739 -3.54102,-3.54101 -4.44326,-3.66333 -8.42515,-1.1422 -7.73628,4.89822 -17.02922,5.65041 -38.4476,3.11206 l -20.79579,-2.46457 -21.46899,8.63079 c -25.76969,10.35972 -41.87083,12.32792 -51.46922,6.29159 z"
       id="path13455"
       transform="scale(0.26458333)" />
    <path
       style="fill:#e7f3e6;fill-opacity:1;stroke:#42a039;stroke-width:9.71451;stroke-miterlimit:0;stroke-dasharray:none;stroke-opacity:1;paint-order:stroke markers fill"
       d="m 56.33967,224.78646 c -0.955882,-0.97737 1.596916,-10.04364 1.963759,-11.76774 -0.325218,-13.96242 -1.965431,-16.17438 -0.325829,-21.6767 l 0.325829,21.6767 c 0.05018,3.3381 3.634508,5.68572 6.161855,6.18812 2.360428,0.46922 6.360517,-0.50708 11.350913,-2.77042 4.512702,-2.04668 4.543377,-2.05056 11.787374,-1.49006 3.697674,0.28611 5.795767,0.21899 7.068586,-0.22613 1.534081,-0.53647 2.003804,-0.4985 3.080537,0.24907 0.926536,0.64329 2.180924,0.84983 4.633806,0.76299 4.45181,-0.1576 5.73088,-0.16073 9.6858,-0.0237 6.06734,0.21024 11.45463,-2.2551 14.34345,-6.56386 0.95861,-1.42978 2.47964,-3.41446 3.38009,-4.4104 1.58442,-1.75244 1.64284,-1.97465 1.8132,-6.89748 0.29695,-8.58043 3.37045,-16.74625 9.71679,-25.81588 4.3401,-6.20251 5.50412,-8.31455 7.01595,-12.72997 1.86703,-5.45279 2.64931,-10.9156 2.29983,-16.06019 -0.26647,-3.92253 -0.23367,-4.14335 0.39953,-2.69029 0.37941,0.87065 0.94788,3.60131 1.26327,6.06815 0.3154,2.46683 0.95632,6.39612 1.53063,8.70647 1.78364,7.17534 2.39836,13.66983 1.14711,19.96617 0.1154,17.26377 3.11331,30.26135 1.85894,44.53989 -0.0224,1.79656 -1.48075,5.90811 -4.37012,6.93673 -36.07984,24.49366 -75.249053,13.55983 -96.1313,-1.97147 z"
       id="path13531" />
    <rect
       style="fill:#ffeff1;fill-opacity:1;stroke:none;stroke-width:0.264583;stroke-miterlimit:0;stroke-dasharray:none;paint-order:stroke markers fill"
       id="rect16879"
       width="5"
       height="5"
       x="104.2858"
       y="183.38631"
       ry="3.5445979" />
    <path
       style="fill:#e7f3e6;fill-opacity:1;stroke:#42a039;stroke-width:37.795;stroke-miterlimit:0;stroke-dasharray:none;stroke-opacity:1;paint-order:stroke markers fill"
       d="m 237.32568,805.5696 c -6.67848,-2.80853 -13.66261,-9.52796 -17.42636,-16.76587 -2.72385,-5.23813 -2.78497,-9.22676 -0.52074,-33.98291 3.3632,-36.77176 1.63836,-46.98931 -11.93695,-70.71174 -5.55193,-9.70183 -13.28066,-24.5359 -17.17495,-32.96458 -12.39876,-22.87049 -25.10864,-63.8522 -15.71362,-82.85791 6.14031,-11.87405 12.94325,-56.50243 12.41129,-81.42013 -0.27224,-12.75227 0.24225,-25.21676 1.14332,-27.69888 1.46571,-4.03755 0.54166,-5.02101 -8.77218,-9.33617 -5.72575,-2.65279 -11.16084,-6.00664 -12.07796,-7.45301 -7.59169,-11.97272 13.71094,-69.68154 41.31577,-111.92443 15.96756,-24.43471 47.38977,-56.74705 67.64069,-69.55682 15.40865,-9.74678 54.84393,-28.30456 54.84393,-25.80891 0,0.86864 -5.37419,19.45175 -11.94265,41.29579 -6.56845,21.84405 -11.95313,40.44453 -11.96595,41.3344 -0.0128,0.88986 3.98076,1.01749 8.87461,0.28361 6.94667,-1.04171 10.82458,-0.40164 17.68372,2.91881 8.22613,3.98221 9.97783,4.11277 27.49852,2.04959 10.29199,-1.21195 34.24894,-2.4562 53.23766,-2.76499 22.4434,-0.36497 35.31942,-1.35592 36.7953,-2.83178 1.24868,-1.24869 4.90518,-2.27035 8.12551,-2.27035 5.83532,0 5.85085,-0.0322 4.57471,-9.47304 -1.44597,-10.69715 -12.56505,-35.0158 -24.84802,-54.34535 -4.53056,-7.12971 -7.32373,-13.27365 -6.20703,-13.6532 4.12961,-1.40357 29.14771,4.12633 42.99619,9.50372 21.43151,8.32188 41.2828,22.40489 64.66003,45.87147 24.32046,24.41342 43.61387,50.23825 70.52222,94.39616 24.66671,40.47931 24.83332,44.38344 2.19214,51.37176 -9.74849,3.00893 -16.58237,8.87235 -20.17997,17.31434 -4.50085,10.56143 -8.6995,59.27158 -7.3806,85.62498 0.99798,19.94098 0.54268,26.21313 -2.88553,39.75033 -5.43986,21.48081 -13.65273,38.97996 -25.80999,54.99333 -32.50514,42.81526 -43.99576,69.29309 -45.89314,105.75158 2.41773,24.93844 -11.62064,28.36448 -30.88878,41.38224 -33.66959,22.74753 -36.71614,23.58696 -53.99623,14.87755 -15.29023,-7.70649 -34.82498,-20.71839 -47.29892,-31.50535 -15.02537,-12.99332 -28.03578,-20.14256 -42.07979,-23.1229 -11.81249,-2.50679 -11.90637,-2.48979 -26.73845,4.84063 -16.86603,8.33564 -22.88989,14.9976 -28.12005,31.09878 -2.05183,6.31658 -6.64336,14.27065 -10.82667,18.75539 -6.4503,6.91506 -8.47254,7.86246 -18.05509,8.45871 -5.93516,0.36929 -13.03436,-0.27189 -15.77599,-1.42485 z m 106.55201,-87.39153 c 10.25873,-11.68 31.45015,-42.93801 39.05741,-57.61092 3.59602,-6.93602 4.26873,-10.93341 3.60199,-21.40439 -0.69397,-10.89827 -1.71177,-13.80653 -6.6277,-18.93765 -9.09401,-9.49209 -15.49676,-10.43882 -56.4474,-8.34647 -36.31106,1.85528 -36.55449,1.89852 -43.87515,7.7935 -19.10458,15.38401 -22.65072,40.88757 -9.63749,69.31218 6.33992,13.84822 15.11965,23.40977 35.05526,38.17687 l 16.82467,12.46271 6.11007,-5.12797 c 3.36053,-2.82037 10.53278,-10.16342 15.93834,-16.31786 z M 260.95235,529.18259 c 4.42161,-1.18378 4.60535,-1.86372 3.3085,-12.24338 -2.33934,-18.72346 -5.43634,-22.25085 -19.59612,-22.31943 -6.14931,-0.0298 -35.26062,11.38357 -35.26062,13.82422 0,4.05237 9.83171,15.45702 15.99435,18.55324 7.01392,3.52392 26.15859,4.70065 35.55389,2.18535 z m 230.76194,-9.23307 c 2.25602,-1.33223 5.8458,-4.03903 7.9773,-6.0151 2.13149,-1.9761 6.04651,-5.2035 8.70004,-7.17199 l 4.82461,-3.5791 -14.27247,-7.14022 c -16.53265,-8.27094 -32.87277,-11.07417 -44.40747,-7.61828 -8.87029,2.6576 -10.8561,5.51512 -12.78844,18.40209 l -1.38592,9.24288 8.66779,3.0642 c 10.44089,3.69102 36.95722,4.19764 42.68456,0.81552 z"
       id="path13379"
       transform="scale(0.26458333)" />
  </g>
</svg>
